<svg width="357" height="438" viewBox="0 0 357 438" fill="none" xmlns="http://www.w3.org/2000/svg">
<rect x="84" y="438" width="84" height="437" rx="5" transform="rotate(180 84 438)" fill="#2D2D2F"/>
<rect x="357" y="438" width="84" height="437" rx="5" transform="rotate(180 357 438)" fill="#004F99"/>
<rect x="266" y="437" width="84" height="437" rx="5" transform="rotate(180 266 437)" fill="#D8244F"/>
<rect x="175" y="437" width="84" height="437" rx="5" transform="rotate(180 175 437)" fill="#248973"/>
<path d="M42.5 386L20.4164 332H64.5836L42.5 386Z" fill="black"/>
<path d="M315.5 386L293.416 332H337.584L315.5 386Z" fill="black"/>
<path d="M223.5 386L201.416 332H245.584L223.5 386Z" fill="black"/>
<path d="M132.5 386L110.416 332H154.584L132.5 386Z" fill="black"/>
<rect x="255" y="197" width="62" height="99" rx="5" transform="rotate(180 255 197)" fill="#F3F3F3"/>
<line x1="198" y1="147.5" x2="249" y2="147.5" stroke="#CBBEBE"/>
<line x1="198" y1="163.5" x2="249" y2="163.5" stroke="#CBBEBE"/>
<line x1="198" y1="181.5" x2="249" y2="181.5" stroke="#CBBEBE"/>
<line x1="198" y1="113.5" x2="249" y2="113.5" stroke="#CBBEBE"/>
<line x1="198" y1="129.5" x2="249" y2="129.5" stroke="#CBBEBE"/>
<line x1="198" y1="147.5" x2="249" y2="147.5" stroke="#CBBEBE"/>
<rect x="164" y="198" width="62" height="99" rx="5" transform="rotate(180 164 198)" fill="#F3F3F3"/>
<line x1="107" y1="148.5" x2="158" y2="148.5" stroke="#CBBEBE"/>
<line x1="107" y1="164.5" x2="158" y2="164.5" stroke="#CBBEBE"/>
<line x1="107" y1="182.5" x2="158" y2="182.5" stroke="#CBBEBE"/>
<line x1="107" y1="114.5" x2="158" y2="114.5" stroke="#CBBEBE"/>
<line x1="107" y1="130.5" x2="158" y2="130.5" stroke="#CBBEBE"/>
<line x1="107" y1="148.5" x2="158" y2="148.5" stroke="#CBBEBE"/>
<rect x="73" y="197" width="62" height="99" rx="5" transform="rotate(180 73 197)" fill="#F3F3F3"/>
<line x1="16" y1="147.5" x2="67" y2="147.5" stroke="#CBBEBE"/>
<line x1="16" y1="163.5" x2="67" y2="163.5" stroke="#CBBEBE"/>
<line x1="16" y1="181.5" x2="67" y2="181.5" stroke="#CBBEBE"/>
<line x1="16" y1="113.5" x2="67" y2="113.5" stroke="#CBBEBE"/>
<line x1="16" y1="129.5" x2="67" y2="129.5" stroke="#CBBEBE"/>
<line x1="16" y1="147.5" x2="67" y2="147.5" stroke="#CBBEBE"/>
<rect x="346" y="199" width="62" height="99" rx="5" transform="rotate(180 346 199)" fill="#F3F3F3"/>
<line x1="289" y1="149.5" x2="340" y2="149.5" stroke="#CBBEBE"/>
<line x1="289" y1="165.5" x2="340" y2="165.5" stroke="#CBBEBE"/>
<line x1="289" y1="183.5" x2="340" y2="183.5" stroke="#CBBEBE"/>
<line x1="289" y1="115.5" x2="340" y2="115.5" stroke="#CBBEBE"/>
<line x1="289" y1="131.5" x2="340" y2="131.5" stroke="#CBBEBE"/>
<line x1="289" y1="149.5" x2="340" y2="149.5" stroke="#CBBEBE"/>
</svg>
